<?xml version="1.0" encoding="UTF-8"?>
<svg xmlns="http://www.w3.org/2000/svg" xmlns:xlink="http://www.w3.org/1999/xlink" width="538.7pt" height="288.1pt" viewBox="0 0 538.7 288.1" version="1.1">
<defs>
<clipPath id="clip1">
  <path d="M 0 0 L 538.699219 0 L 538.699219 288.101563 L 0 288.101563 Z M 0 0 "/>
</clipPath>
<clipPath id="clip2">
  <path d="M 0 138 L 538.699219 138 L 538.699219 224 L 0 224 Z M 0 138 "/>
</clipPath>
</defs>
<g id="surface1">
<g clip-path="url(#clip1)" clip-rule="nonzero">
<path style=" stroke:none;fill-rule:evenodd;fill:rgb(100%,94.921875%,0%);fill-opacity:1;" d="M 40.167969 249.839844 C 62.335938 249.839844 77.089844 229.429688 80.425781 209.304688 C 75.734375 251.589844 96.15625 261.628906 116.695313 262.851563 C 134.902344 263.929688 152.253906 253.601563 156.144531 236.03125 L 156.144531 257.820313 C 160.367188 281.515625 179.3125 288.078125 193.558594 288.078125 C 207.277344 288.078125 226.019531 281.292969 230.828125 257.890625 L 230.828125 231.71875 C 240.714844 276.65625 302.324219 267.6875 307.378906 232.191406 L 307.324219 217.402344 C 315.867188 255.742188 372.644531 260.121094 383.15625 218.589844 L 383.089844 230.222656 C 383.96875 270.660156 456.171875 275.832031 458.074219 226.753906 L 458.144531 215.539063 C 466.214844 265.773438 538.710938 253.738281 538.601563 214.546875 L 538.601563 43.578125 C 533.480469 26.484375 517.515625 14.011719 498.609375 14.011719 C 479.128906 14.011719 462.769531 27.253906 458.175781 45.15625 L 458.175781 70.421875 C 453.503906 54.460938 438.738281 42.804688 421.253906 42.804688 C 402.511719 42.804688 386.632813 56.898438 381.847656 74.734375 L 381.847656 58.03125 C 378.300781 40.679688 362.933594 27.621094 344.519531 27.621094 C 326.40625 27.621094 311.246094 40.253906 307.378906 57.175781 L 307.378906 74.933594 C 304.296875 56.785156 288.488281 42.96875 269.449219 42.96875 C 250.816406 42.96875 235.28125 56.203125 231.738281 73.773438 L 231.671875 55.371094 C 228.253906 37.644531 212.640625 24.246094 193.894531 24.246094 C 176.882813 24.246094 162.449219 35.285156 157.371094 50.578125 L 157.371094 38.339844 C 157.371094 17.164063 140.15625 -0.0703125 118.898438 -0.0703125 C 97.988281 -0.0703125 80.15625 17.265625 80.425781 38.390625 L 80.425781 83.851563 C 77.089844 63.726563 62.335938 43.316406 40.167969 43.316406 C 20.851563 43.316406 4.628906 59.84375 0.078125 82.183594 L 0.078125 208.277344 C 2.269531 231.289063 20.851563 249.839844 40.167969 249.839844 Z M 40.167969 249.839844 "/>
</g>
<g clip-path="url(#clip2)" clip-rule="nonzero">
<path style=" stroke:none;fill-rule:evenodd;fill:rgb(92.96875%,10.984802%,14.109802%);fill-opacity:1;" d="M 496.425781 138.765625 C 519.722656 138.765625 538.609375 157.648438 538.609375 180.945313 C 538.609375 204.238281 519.722656 223.121094 496.425781 223.121094 C 479.820313 223.121094 465.464844 213.527344 458.578125 199.578125 C 451.699219 213.527344 437.339844 223.121094 420.730469 223.121094 C 404.128906 223.121094 389.765625 213.527344 382.882813 199.578125 C 376.003906 213.527344 361.640625 223.121094 345.035156 223.121094 C 328.429688 223.121094 314.070313 213.527344 307.1875 199.578125 C 300.304688 213.527344 285.945313 223.121094 269.339844 223.121094 C 252.734375 223.121094 238.371094 213.527344 231.492188 199.578125 C 224.609375 213.527344 210.253906 223.121094 193.644531 223.121094 C 177.039063 223.121094 162.675781 213.527344 155.796875 199.578125 C 148.914063 213.527344 134.554688 223.121094 117.949219 223.121094 C 101.34375 223.121094 86.980469 213.527344 80.101563 199.578125 C 73.21875 213.527344 58.859375 223.121094 42.253906 223.121094 C 18.960938 223.121094 0.0703125 204.238281 0.0703125 180.945313 C 0.0703125 157.648438 18.960938 138.765625 42.253906 138.765625 C 58.859375 138.765625 73.21875 148.359375 80.101563 162.308594 C 86.980469 148.359375 101.34375 138.765625 117.949219 138.765625 C 134.554688 138.765625 148.914063 148.359375 155.796875 162.308594 C 162.675781 148.359375 177.039063 138.765625 193.644531 138.765625 C 210.253906 138.765625 224.609375 148.359375 231.492188 162.308594 C 238.371094 148.359375 252.734375 138.765625 269.339844 138.765625 C 285.945313 138.765625 300.304688 148.359375 307.1875 162.308594 C 314.070313 148.359375 328.429688 138.765625 345.035156 138.765625 C 361.640625 138.765625 376.003906 148.359375 382.882813 162.308594 C 389.765625 148.359375 404.128906 138.765625 420.730469 138.765625 C 437.339844 138.765625 451.699219 148.359375 458.578125 162.308594 C 465.464844 148.359375 479.820313 138.765625 496.425781 138.765625 Z M 496.425781 138.765625 "/>
</g>
<path style=" stroke:none;fill-rule:evenodd;fill:rgb(0%,0%,0%);fill-opacity:1;" d="M 265.921875 82.289063 C 277.558594 82.289063 286.992188 91.726563 286.992188 103.363281 C 286.992188 114.996094 277.558594 124.433594 265.921875 124.433594 C 254.285156 124.433594 244.847656 114.996094 244.847656 103.363281 C 244.847656 91.726563 254.285156 82.289063 265.921875 82.289063 Z M 34.523438 124.316406 L 35.855469 124.421875 L 43.601563 124.433594 L 44.992188 124.359375 L 44.988281 80.40625 L 43.265625 80.371094 L 36.191406 80.359375 L 34.523438 80.449219 Z M 487.605469 82.113281 L 482.050781 82.128906 L 482.046875 91.441406 L 487.507813 91.453125 C 488.300781 98.605469 486.574219 108.496094 488.199219 115.222656 C 490.308594 123.285156 496.644531 124.746094 504.152344 124.382813 L 504.15625 115.054688 C 499.496094 115.175781 497.578125 112.605469 497.589844 108.824219 L 497.652344 91.453125 L 503.765625 91.515625 L 503.5625 82.132813 L 497.59375 82.019531 L 497.570313 64.113281 L 487.605469 64.261719 Z M 328.847656 109.300781 L 323.378906 116.277344 C 324.664063 118.367188 330.328125 121.300781 332.664063 122.21875 C 357.546875 131.996094 367.296875 106.699219 349.800781 99.328125 C 346.128906 97.78125 341.550781 97.089844 338.121094 95.519531 C 332.339844 92.871094 337.015625 85.484375 347.648438 90.410156 C 350.003906 91.496094 350.464844 91.949219 352.496094 93.363281 L 357.050781 85.628906 C 350.503906 81.527344 342.246094 77.367188 333.761719 80.789063 C 325.253906 84.230469 323.351563 95.128906 328.992188 100.644531 C 334.503906 106.039063 348.234375 105.9375 349.253906 111.007813 C 350.433594 116.894531 337.652344 116.726563 328.847656 109.300781 Z M 126.683594 100.402344 L 127.117188 124.324219 L 137.386719 124.371094 L 137.339844 101.527344 C 137.011719 92.777344 132.8125 87.789063 127.472656 84.203125 C 121.203125 79.996094 112.902344 79.027344 105.574219 82.539063 C 99.988281 85.222656 94.605469 91.246094 93.066406 98.441406 L 92.980469 124.433594 L 103.015625 124.414063 L 103.171875 107.800781 C 103.171875 101.664063 102.78125 97.996094 106.566406 94.316406 C 114.765625 86.339844 126.179688 92.789063 126.683594 100.402344 Z M 429.355469 120.203125 L 429.359375 124.425781 L 438.355469 124.433594 L 438.402344 103.515625 C 438.359375 95.894531 436.515625 92.289063 432.835938 87.765625 C 422.746094 75.371094 398.410156 79.273438 395.128906 98.753906 C 393.21875 110.078125 400.71875 121.242188 412.179688 123.621094 C 421.359375 125.53125 425.617188 122.914063 429.355469 120.203125 Z M 416.601563 90.410156 C 423.1875 90.410156 428.523438 95.746094 428.523438 102.335938 C 428.523438 108.921875 423.1875 114.261719 416.601563 114.261719 C 410.015625 114.261719 404.675781 108.921875 404.675781 102.335938 C 404.675781 95.746094 410.015625 90.410156 416.601563 90.410156 Z M 202.53125 84.203125 C 199.976563 82.449219 198.28125 81.777344 194.203125 81.101563 C 184.527344 79.496094 175.828125 84.089844 171.136719 92.660156 C 165.488281 102.980469 169.992188 118.21875 183.046875 123.015625 C 196.835938 128.085938 209.195313 118.78125 211.734375 107.644531 C 212.914063 102.484375 212.335938 69.210938 212.335938 61.359375 L 202.535156 61.378906 Z M 190.589844 90.589844 C 197.175781 90.589844 202.511719 95.929688 202.511719 102.515625 C 202.511719 109.101563 197.175781 114.4375 190.589844 114.4375 C 184.003906 114.4375 178.664063 109.101563 178.664063 102.515625 C 178.664063 95.929688 184.003906 90.589844 190.589844 90.589844 Z M 265.921875 91.4375 C 272.507813 91.4375 277.84375 96.777344 277.84375 103.363281 C 277.84375 109.949219 272.507813 115.289063 265.921875 115.289063 C 259.339844 115.289063 253.996094 109.949219 253.996094 103.363281 C 253.996094 96.777344 259.339844 91.4375 265.921875 91.4375 Z M 265.921875 91.4375 "/>
<path style=" stroke:none;fill-rule:evenodd;fill:rgb(100%,100%,100%);fill-opacity:1;" d="M 42.726563 158.476563 C 55.136719 158.476563 65.195313 168.535156 65.195313 180.945313 C 65.195313 193.351563 55.136719 203.410156 42.726563 203.410156 C 30.320313 203.410156 20.261719 193.351563 20.261719 180.945313 C 20.261719 168.535156 30.320313 158.476563 42.726563 158.476563 Z M 495.953125 158.476563 C 508.359375 158.476563 518.421875 168.535156 518.421875 180.945313 C 518.421875 193.351563 508.359375 203.410156 495.953125 203.410156 C 483.546875 203.410156 473.484375 193.351563 473.484375 180.945313 C 473.484375 168.535156 483.546875 158.476563 495.953125 158.476563 Z M 495.953125 168.230469 C 502.972656 168.230469 508.671875 173.921875 508.671875 180.945313 C 508.671875 187.964844 502.972656 193.65625 495.953125 193.65625 C 488.929688 193.65625 483.238281 187.964844 483.238281 180.945313 C 483.238281 173.921875 488.929688 168.230469 495.953125 168.230469 Z M 420.433594 158.476563 C 432.839844 158.476563 442.898438 168.535156 442.898438 180.945313 C 442.898438 193.351563 432.839844 203.410156 420.433594 203.410156 C 408.023438 203.410156 397.964844 193.351563 397.964844 180.945313 C 397.964844 168.535156 408.023438 158.476563 420.433594 158.476563 Z M 420.433594 168.230469 C 427.453125 168.230469 433.144531 173.921875 433.144531 180.945313 C 433.144531 187.964844 427.453125 193.65625 420.433594 193.65625 C 413.410156 193.65625 407.71875 187.964844 407.71875 180.945313 C 407.71875 173.921875 413.410156 168.230469 420.433594 168.230469 Z M 357.261719 140.445313 C 360.871094 141.566406 364.273438 143.15625 367.394531 145.148438 C 367.507813 158.070313 367.730469 181.769531 366.738281 186.117188 C 364.121094 197.589844 351.386719 207.167969 337.179688 201.949219 C 323.738281 197.007813 319.097656 181.308594 324.921875 170.679688 C 329.753906 161.851563 338.714844 157.121094 348.679688 158.773438 C 352.878906 159.46875 354.609375 160.28125 357.253906 161.964844 Z M 344.953125 168.546875 C 351.738281 168.546875 357.238281 174.046875 357.238281 180.828125 C 357.238281 187.613281 351.738281 193.113281 344.953125 193.113281 C 338.171875 193.113281 332.671875 187.613281 332.671875 180.828125 C 332.671875 174.046875 338.171875 168.546875 344.953125 168.546875 Z M 258.851563 174.179688 C 261.398438 165.304688 277.796875 165.246094 280.234375 174.160156 Z M 291.632813 185.648438 L 281.519531 185.691406 C 278.835938 191.242188 274.019531 194.664063 267.628906 193.742188 C 261.222656 192.398438 257.8125 188.214844 256.796875 181.753906 L 292.230469 181.703125 C 292.972656 169.398438 282.949219 159.8125 272.105469 158.648438 C 259.402344 157.285156 249.066406 166.894531 247.613281 177.84375 C 245.878906 190.902344 255.0625 201.261719 266.003906 203.101563 C 275.046875 204.621094 283.726563 200.429688 288.472656 193.503906 C 289.628906 191.8125 291.5625 188.089844 291.632813 185.648438 Z M 206.089844 179.0625 L 206.109375 180.136719 L 216.882813 180.136719 C 216.53125 171.3125 212.285156 166.28125 206.886719 162.65625 C 200.535156 158.390625 192.128906 157.410156 184.703125 160.972656 C 179.046875 163.6875 173.59375 169.789063 172.03125 177.078125 L 171.949219 203.410156 L 182.113281 203.390625 L 182.265625 186.558594 C 182.265625 180.347656 181.878906 176.628906 185.714844 172.898438 C 194.015625 164.820313 205.578125 171.351563 206.089844 179.0625 Z M 118.246094 158.476563 C 130.65625 158.476563 140.714844 168.535156 140.714844 180.945313 C 140.714844 193.351563 130.65625 203.410156 118.246094 203.410156 C 105.839844 203.410156 95.78125 193.351563 95.78125 180.945313 C 95.78125 168.535156 105.839844 158.476563 118.246094 158.476563 Z M 118.246094 168.230469 C 125.269531 168.230469 130.964844 173.921875 130.964844 180.945313 C 130.964844 187.964844 125.269531 193.65625 118.246094 193.65625 C 111.226563 193.65625 105.535156 187.964844 105.535156 180.945313 C 105.535156 173.921875 111.226563 168.230469 118.246094 168.230469 Z M 42.726563 168.230469 C 49.753906 168.230469 55.441406 173.921875 55.441406 180.945313 C 55.441406 187.964844 49.753906 193.65625 42.726563 193.65625 C 35.710938 193.65625 30.011719 187.964844 30.011719 180.945313 C 30.011719 173.921875 35.710938 168.230469 42.726563 168.230469 Z M 42.726563 168.230469 "/>
</g>
</svg>
